<svg width="50" height="60" viewBox="0 0 50 60" fill="none" xmlns="http://www.w3.org/2000/svg">
<path d="M35.4167 52.5V47.5C35.4167 44.8478 34.5387 42.3043 32.9759 40.4289C31.4131 38.5536 29.2935 37.5 27.0833 37.5H10.4167C8.20653 37.5 6.08692 38.5536 4.52411 40.4289C2.96131 42.3043 2.08334 44.8478 2.08334 47.5V52.5M47.9167 52.5V47.5C47.9153 45.2843 47.3007 43.1319 46.1695 41.3808C45.0383 39.6296 43.4544 38.3789 41.6667 37.825M33.3333 7.825C35.1259 8.37575 36.7147 9.62675 37.8492 11.3808C38.9838 13.1348 39.5997 15.2921 39.5997 17.5125C39.5997 19.7329 38.9838 21.8902 37.8492 23.6442C36.7147 25.3982 35.1259 26.6492 33.3333 27.2M27.0833 17.5C27.0833 23.0228 23.3524 27.5 18.75 27.5C14.1476 27.5 10.4167 23.0228 10.4167 17.5C10.4167 11.9772 14.1476 7.5 18.75 7.5C23.3524 7.5 27.0833 11.9772 27.0833 17.5Z" stroke="#129582" stroke-width="3.5" stroke-linecap="round" stroke-linejoin="round"/>
</svg>
