<svg width="60" height="60" viewBox="0 0 60 60" fill="none" xmlns="http://www.w3.org/2000/svg">
<path d="M59.993 59.9988C59.9953 59.9988 59.9977 60 60 60C58.1265 51.6423 50.9887 45.2551 42.2134 44.4595C42.134 48.1025 36.6957 51.0426 29.9994 51.0426C23.302 51.0426 17.8649 48.1025 17.7854 44.4595C9.01244 45.2563 1.87234 51.6434 0 60C0.00350406 60 0.00700903 59.9988 0.0105131 59.9988H59.993Z" fill="#129582"/>
<path d="M18.4531 23.4699L14.7388 21.874C14.6547 22.5572 14.6021 23.2519 14.6021 23.9582C14.6021 24.2957 14.615 24.6298 14.6337 24.9615C14.6629 25.4463 14.7084 25.9265 14.7785 26.3997C14.789 26.5446 14.8019 26.6873 14.8159 26.83C15.7865 37.7393 22.2141 46.1689 30.0001 46.1689C37.7862 46.1689 44.2138 37.7393 45.1844 26.83C45.1984 26.6861 45.2089 26.5435 45.2206 26.3997C45.2907 25.9265 45.3362 25.4463 45.3643 24.9615C45.3841 24.6286 45.3958 24.2957 45.3958 23.9582C45.3958 23.2519 45.3433 22.5572 45.2592 21.874L41.5437 23.4711C41.5472 25.807 41.1851 27.948 41.1851 27.9492C41.9887 27.3936 42.7222 27.1037 43.3214 26.9552C42.4372 36.4843 36.8109 43.833 29.9978 43.833C23.1848 43.833 17.5596 36.4843 16.6754 26.9541C17.2746 27.1025 18.0104 27.3913 18.8117 27.948C18.8117 27.948 18.4496 25.807 18.4531 23.4699Z" fill="#129582"/>
<path d="M8.68291 10.5822L10.1207 11.2004L9.99927 12.1596C9.44914 12.2524 9.02865 12.7279 9.02865 13.302C9.02865 13.8181 9.36737 14.2566 9.83809 14.405L8.96441 26.5507C8.9282 27.0575 9.03098 27.8671 9.19217 28.3484L9.89999 30.4605C9.98059 30.7017 10.0869 30.8223 10.1932 30.8223C10.2995 30.8223 10.4057 30.7017 10.4875 30.4605L11.1965 28.3484C11.3577 27.8671 11.4605 27.0575 11.4243 26.5507L10.5529 14.405C11.0201 14.2554 11.3624 13.8193 11.3624 13.302C11.3624 12.7279 10.9419 12.2524 10.3894 12.1596L10.2773 11.2677L13.5991 12.6943L15.225 13.3937V19.6277L20.5991 21.9358L27.6656 24.9745C28.3092 25.2505 29.156 25.3886 30.0016 25.3886C30.8484 25.3886 31.6952 25.2505 32.3377 24.9745L39.4042 21.9358L44.7794 19.6266V13.3925L46.4053 12.6931L51.3191 10.5799C52.6063 10.0278 52.6063 9.12434 51.3191 8.57226L32.3388 0.412898C31.6941 0.138019 30.8484 0 30.0016 0C29.1548 0 28.308 0.138019 27.6656 0.415217L8.68408 8.57458C7.39692 9.12666 7.39692 10.0302 8.68291 10.5822Z" fill="#129582"/>
</svg>
