<svg width="30" height="30" viewBox="0 0 30 30" fill="none" xmlns="http://www.w3.org/2000/svg">
<path d="M15.0472 4.11279C8.87202 4.11279 3.84653 8.9532 3.84435 14.9019C3.8429 16.8042 4.35968 18.6609 5.33952 20.2961L3.75 25.887L9.68927 24.3867C11.3414 25.2509 13.1784 25.7017 15.0428 25.7005H15.0472C21.2223 25.7005 26.2478 20.8593 26.25 14.9106C26.2514 12.0292 25.0873 9.31683 22.9715 7.27804C20.8565 5.23852 18.044 4.11352 15.0472 4.11279ZM15.0472 23.878H15.0435C13.3727 23.878 11.7339 23.4454 10.304 22.6281L9.9629 22.4336L6.43984 23.3234L7.38048 20.0138L7.15911 19.6748C6.22928 18.2567 5.73431 16.5977 5.73508 14.9019C5.73726 9.95699 9.915 5.93529 15.0508 5.93529C17.5374 5.93602 19.8752 6.87013 21.6339 8.56489C23.3925 10.2596 24.36 12.5133 24.3585 14.9099C24.3564 19.8548 20.1794 23.878 15.0465 23.878H15.0472ZM20.1547 17.1606C19.8745 17.0263 18.4984 16.3738 18.2415 16.2831C17.9852 16.1938 17.7987 16.1474 17.6122 16.4174C17.4264 16.6874 16.8893 17.2949 16.7267 17.4742C16.5627 17.6542 16.3994 17.6759 16.1192 17.5417C15.839 17.4067 14.9369 17.1221 13.8685 16.2033C13.036 15.4891 12.4742 14.6065 12.3109 14.3358C12.1476 14.0665 12.2935 13.9206 12.4335 13.7863C12.5591 13.6666 12.7137 13.4721 12.8531 13.3146C12.9924 13.1571 13.0389 13.0446 13.1332 12.8646C13.2261 12.6853 13.1797 12.5271 13.1093 12.3928C13.0389 12.2571 12.48 10.9303 12.2456 10.391C12.0191 9.86553 11.7883 9.93594 11.6163 9.92723C11.453 9.91997 11.2672 9.91779 11.0792 9.91779C10.8941 9.91779 10.59 9.98529 10.3331 10.2553C10.0769 10.5253 9.35323 11.1771 9.35323 12.5038C9.35323 13.8313 10.3563 15.1131 10.4964 15.2931C10.6365 15.4724 12.4706 18.1963 15.2787 19.3649C15.9465 19.6414 16.4676 19.8076 16.8748 19.9325C17.5454 20.1379 18.1558 20.1081 18.6377 20.0392C19.1748 19.9615 20.294 19.3874 20.5263 18.7581C20.76 18.1288 20.76 17.5888 20.6903 17.4763C20.6221 17.3638 20.4348 17.2963 20.1547 17.1606Z" fill="#27767A"/>
</svg>
